<svg width="35" height="35" viewBox="0 0 35 35" fill="none" xmlns="http://www.w3.org/2000/svg">
<g clip-path="url(#clip0_3574_2875)">
<path d="M14.0924 34.4531C11.2527 32.6814 9.84934 28.9929 10.8069 25.8521C11.3022 27.8493 12.7551 29.3473 14.1585 29.8949C13.5806 26.3514 17.1633 23.726 18.7813 21.8898C20.2507 20.2147 20.6304 17.5732 19.0785 15.721C23.1069 18.2819 24.8074 23.8227 22.8758 28.1232C21.9347 30.217 20.2507 32.0693 19.9865 34.3565C21.2743 31.7472 29.6779 30.5392 29.5293 22.8724C29.4468 18.3464 24.081 13.7881 25.9962 9.8581C24.5598 10.7279 23.4866 12.1291 22.7107 14.223C23.7013 6.52399 21.3238 2.41677 17.6751 -0.546875C18.6327 1.17655 18.352 3.4315 17.2458 5.05828C14.6538 8.89169 10.9225 9.55207 11.4673 15.0767C11.5499 15.9465 11.748 16.9773 11.1206 17.6054C10.4437 18.2819 9.07337 18.2658 8.57807 17.3477C8.1323 16.5102 7.98371 15.3827 7.95069 14.4324C6.20063 17.8954 4.71472 22.5824 5.88694 26.2709C7.88465 32.4398 14.0924 34.4531 14.0924 34.4531Z" fill="#00183E"/>
</g>
<defs>
<clipPath id="clip0_3574_2875">
<rect width="35" height="35" fill="white"/>
</clipPath>
</defs>
</svg>
